<svg width="71" height="31" viewBox="0 0 71 31" fill="none" xmlns="http://www.w3.org/2000/svg">
<path d="M0.5 15.5C0.5 7.21573 7.21573 0.5 15.5 0.5H55.5C63.7843 0.5 70.5 7.21573 70.5 15.5C70.5 23.7843 63.7843 30.5 55.5 30.5H15.5C7.21573 30.5 0.5 23.7843 0.5 15.5Z" stroke="#FF7878"/>
<path d="M18.376 10.52H21.096C22.7173 10.52 23.96 10.9627 24.824 11.848C25.6987 12.7333 26.136 14.024 26.136 15.72C26.136 17.416 25.704 18.7227 24.84 19.64C23.976 20.5467 22.7547 21 21.176 21H18.376V10.52ZM20.984 19.672C22.1147 19.672 22.9733 19.3413 23.56 18.68C24.1573 18.008 24.456 17.0213 24.456 15.72C24.456 14.4293 24.1627 13.464 23.576 12.824C22.9893 12.1733 22.1253 11.848 20.984 11.848H20.008V19.672H20.984ZM28.3135 10.52H34.5055V11.896H29.9455V14.84H33.8015V16.216H29.9455V19.624H34.6655V21H28.3135V10.52ZM36.8448 10.52H38.5248L42.0128 16.712L43.1168 18.92H43.1808C43.1594 18.5787 43.1381 18.3387 43.1168 18.2C43.1061 18.0827 43.0794 17.7253 43.0368 17.128C42.9941 16.5307 42.9728 15.9707 42.9728 15.448V10.52H44.5248V21H42.8448L39.3568 14.792L38.2528 12.6H38.1888L38.2528 13.4C38.2634 13.528 38.2901 13.8747 38.3328 14.44C38.3754 15.0053 38.3968 15.5333 38.3968 16.024V21H36.8448V10.52ZM49.0103 17.032L45.8582 10.52H47.6023L48.8343 13.32C49.2716 14.376 49.5969 15.1387 49.8103 15.608H49.8743L50.2583 14.744C50.5889 13.976 50.7916 13.5013 50.8663 13.32L52.0983 10.52H53.7943L50.6423 17.032V21H49.0103V17.032Z" fill="#FF7878"/>
</svg>
