<svg width="81" height="31" viewBox="0 0 81 31" fill="none" xmlns="http://www.w3.org/2000/svg">
<path d="M0 15.5C0 6.93959 6.93959 0 15.5 0H65.5C74.0604 0 81 6.93959 81 15.5C81 24.0604 74.0604 31 65.5 31H15.5C6.93959 31 0 24.0604 0 15.5Z" fill="#5AB96A"/>
<path d="M23.208 19.008H19.56L18.664 22H17L20.472 11.52H22.36L25.832 22H24.104L23.208 19.008ZM22.824 17.712L22.408 16.304C22.2587 15.8027 22.088 15.2213 21.896 14.56C21.7147 13.8987 21.5813 13.4187 21.496 13.12C21.4853 13.0347 21.4587 12.9333 21.416 12.816H21.352C21.0107 14.128 20.6853 15.2907 20.376 16.304L19.96 17.712H22.824ZM27.2041 11.52H28.8361V20.624H33.2841V22H27.2041V11.52ZM35.126 11.52H36.758V20.624H41.206V22H35.126V11.52ZM46.5631 22.192C45.6671 22.192 44.8725 21.9733 44.1791 21.536C43.4965 21.088 42.9631 20.4533 42.5791 19.632C42.1951 18.8 42.0031 17.8293 42.0031 16.72C42.0031 15.6107 42.1951 14.6507 42.5791 13.84C42.9631 13.0293 43.4965 12.4107 44.1791 11.984C44.8725 11.5467 45.6671 11.328 46.5631 11.328C47.4591 11.328 48.2485 11.5467 48.9311 11.984C49.6245 12.4107 50.1631 13.0293 50.5471 13.84C50.9311 14.6507 51.1231 15.6107 51.1231 16.72C51.1231 17.8293 50.9311 18.8 50.5471 19.632C50.1631 20.4533 49.6245 21.088 48.9311 21.536C48.2485 21.9733 47.4591 22.192 46.5631 22.192ZM46.5631 20.768C47.1391 20.768 47.6458 20.6027 48.0831 20.272C48.5205 19.9413 48.8565 19.472 49.0911 18.864C49.3258 18.2453 49.4431 17.5307 49.4431 16.72C49.4431 15.4933 49.1818 14.528 48.6591 13.824C48.1365 13.1093 47.4378 12.752 46.5631 12.752C45.6885 12.752 44.9898 13.1093 44.4671 13.824C43.9445 14.528 43.6831 15.4933 43.6831 16.72C43.6831 17.5307 43.8005 18.2453 44.0351 18.864C44.2698 19.472 44.6058 19.9413 45.0431 20.272C45.4805 20.6027 45.9871 20.768 46.5631 20.768ZM52.1638 11.52H53.8438L54.8358 16.992C55.0918 18.4853 55.2784 19.6053 55.3958 20.352H55.4598C55.6624 19.3387 55.8971 18.2187 56.1638 16.992L57.5238 11.52H58.9638L60.3238 16.992L61.0438 20.352H61.1078L61.6518 16.992L62.6438 11.52H64.2118L62.1318 22H60.1318L58.7078 16.144C58.5158 15.248 58.3558 14.448 58.2278 13.744H58.1638C58.0038 14.5867 57.8651 15.2533 57.7478 15.744C57.7371 15.8507 57.7104 15.984 57.6678 16.144L56.2758 22H54.3078L52.1638 11.52Z" fill="white"/>
</svg>
