<svg width="82" height="30" viewBox="0 0 82 30" fill="none" xmlns="http://www.w3.org/2000/svg">
<path d="M1 15C1 7.26801 7.26801 1 15 1H67C74.732 1 81 7.26801 81 15C81 22.732 74.732 29 67 29H15C7.26801 29 1 22.732 1 15Z" stroke="#6B5A9B" stroke-width="2"/>
<path d="M23.456 20.192C22.5707 20.192 21.776 19.9787 21.072 19.552C20.368 19.1253 19.8133 18.5067 19.408 17.696C19.0027 16.8747 18.8 15.904 18.8 14.784C18.8 13.6747 19.008 12.7093 19.424 11.888C19.84 11.0667 20.4053 10.4373 21.12 10C21.8453 9.552 22.6507 9.328 23.536 9.328C24.144 9.328 24.6987 9.45067 25.2 9.696C25.712 9.94133 26.144 10.256 26.496 10.64L25.616 11.696C25.008 11.0667 24.3253 10.752 23.568 10.752C22.96 10.752 22.4213 10.9173 21.952 11.248C21.4933 11.568 21.1307 12.0267 20.864 12.624C20.608 13.2213 20.48 13.9253 20.48 14.736C20.48 15.984 20.752 16.9707 21.296 17.696C21.8507 18.4107 22.592 18.768 23.52 18.768C24.3947 18.768 25.168 18.3947 25.84 17.648L26.72 18.672C25.856 19.6853 24.768 20.192 23.456 20.192ZM30.2755 20.192C29.5928 20.192 29.0382 19.9893 28.6115 19.584C28.1848 19.168 27.9715 18.6133 27.9715 17.92C27.9715 17.0773 28.3448 16.432 29.0915 15.984C29.8382 15.5253 31.0275 15.2053 32.6595 15.024C32.6382 13.872 32.1368 13.296 31.1555 13.296C30.4942 13.296 29.7422 13.5627 28.8995 14.096L28.2915 13.008C29.3582 12.3253 30.4088 11.984 31.4435 11.984C32.3928 11.984 33.1022 12.272 33.5715 12.848C34.0408 13.4133 34.2755 14.2293 34.2755 15.296V20H32.9475L32.8195 19.104H32.7715C31.9075 19.8293 31.0755 20.192 30.2755 20.192ZM30.7715 18.912C31.1022 18.912 31.4115 18.8373 31.6995 18.688C31.9875 18.5387 32.3075 18.304 32.6595 17.984V16.048C31.5288 16.1867 30.7235 16.4 30.2435 16.688C29.7742 16.976 29.5395 17.3493 29.5395 17.808C29.5395 18.1707 29.6515 18.448 29.8755 18.64C30.0995 18.8213 30.3982 18.912 30.7715 18.912ZM36.5914 12.176H37.9194L38.0474 13.264H38.0954C38.5114 12.8587 38.922 12.544 39.3274 12.32C39.7434 12.096 40.1967 11.984 40.6874 11.984C42.2874 11.984 43.0874 13.0133 43.0874 15.072V20H41.4714V15.28C41.4714 14.608 41.3647 14.1227 41.1514 13.824C40.9487 13.5253 40.6127 13.376 40.1434 13.376C39.7914 13.376 39.4767 13.4613 39.1994 13.632C38.922 13.792 38.5914 14.064 38.2074 14.448V20H36.5914V12.176ZM48.6348 20.192C47.9308 20.192 47.2961 20.032 46.7308 19.712C46.1654 19.3813 45.7174 18.9067 45.3868 18.288C45.0668 17.6693 44.9068 16.9387 44.9068 16.096C44.9068 15.2533 45.0828 14.5227 45.4348 13.904C45.7868 13.2853 46.2561 12.8107 46.8428 12.48C47.4294 12.1493 48.0694 11.984 48.7628 11.984C49.6161 11.984 50.3788 12.2827 51.0508 12.88L50.2508 13.936C50.0161 13.7333 49.7868 13.5787 49.5628 13.472C49.3388 13.3653 49.0988 13.312 48.8428 13.312C48.1708 13.312 47.6214 13.568 47.1948 14.08C46.7788 14.592 46.5707 15.264 46.5707 16.096C46.5707 16.928 46.7734 17.6 47.1788 18.112C47.5948 18.6133 48.1334 18.864 48.7948 18.864C49.3814 18.864 49.9521 18.624 50.5068 18.144L51.1788 19.216C50.8268 19.536 50.4268 19.7813 49.9788 19.952C49.5414 20.112 49.0934 20.192 48.6348 20.192ZM58.6275 15.68C58.6275 15.9787 58.6062 16.256 58.5635 16.512H53.3955C53.4702 17.3013 53.7368 17.904 54.1955 18.32C54.6648 18.7253 55.2302 18.928 55.8915 18.928C56.5208 18.928 57.1448 18.7307 57.7635 18.336L58.3235 19.36C57.4915 19.9147 56.6115 20.192 55.6835 20.192C54.9688 20.192 54.3235 20.0267 53.7475 19.696C53.1715 19.3653 52.7128 18.8907 52.3715 18.272C52.0408 17.6533 51.8755 16.928 51.8755 16.096C51.8755 15.2747 52.0408 14.5547 52.3715 13.936C52.7128 13.3067 53.1555 12.8267 53.6995 12.496C54.2435 12.1547 54.8248 11.984 55.4435 11.984C56.4568 11.984 57.2408 12.32 57.7955 12.992C58.3502 13.6533 58.6275 14.5493 58.6275 15.68ZM57.2195 15.392C57.2195 14.7093 57.0702 14.1813 56.7715 13.808C56.4728 13.4347 56.0408 13.248 55.4755 13.248C54.9848 13.248 54.5475 13.4293 54.1635 13.792C53.7795 14.1547 53.5342 14.688 53.4275 15.392H57.2195ZM62.0668 20.192C61.5014 20.192 61.0908 20.0213 60.8348 19.68C60.5788 19.3387 60.4508 18.8373 60.4508 18.176V8.656H62.0668V18.272C62.0668 18.4747 62.1041 18.624 62.1788 18.72C62.2534 18.816 62.3441 18.864 62.4508 18.864C62.5468 18.864 62.6428 18.8533 62.7388 18.832L62.9468 20.048C62.7014 20.144 62.4081 20.192 62.0668 20.192Z" fill="#6B5A9B"/>
</svg>
