<svg width="82" height="30" viewBox="0 0 82 30" fill="none" xmlns="http://www.w3.org/2000/svg">
<path d="M0 15C0 6.71573 6.71573 0 15 0H67C75.2843 0 82 6.71573 82 15C82 23.2843 75.2843 30 67 30H15C6.71573 30 0 23.2843 0 15Z" fill="#6B5A9B"/>
<path d="M25.956 20.192C25.0707 20.192 24.276 19.9787 23.572 19.552C22.868 19.1253 22.3133 18.5067 21.908 17.696C21.5027 16.8747 21.3 15.904 21.3 14.784C21.3 13.6747 21.508 12.7093 21.924 11.888C22.34 11.0667 22.9053 10.4373 23.62 10C24.3453 9.552 25.1507 9.328 26.036 9.328C26.644 9.328 27.1987 9.45067 27.7 9.696C28.212 9.94133 28.644 10.256 28.996 10.64L28.116 11.696C27.508 11.0667 26.8253 10.752 26.068 10.752C25.46 10.752 24.9213 10.9173 24.452 11.248C23.9933 11.568 23.6307 12.0267 23.364 12.624C23.108 13.2213 22.98 13.9253 22.98 14.736C22.98 15.984 23.252 16.9707 23.796 17.696C24.3507 18.4107 25.092 18.768 26.02 18.768C26.8947 18.768 27.668 18.3947 28.34 17.648L29.22 18.672C28.356 19.6853 27.268 20.192 25.956 20.192ZM30.9195 12.176H32.2475L32.3755 13.584H32.4235C32.7008 13.0827 33.0315 12.6933 33.4155 12.416C33.8102 12.128 34.2208 11.984 34.6475 11.984C34.9995 11.984 35.2875 12.0373 35.5115 12.144L35.2235 13.552C34.9355 13.4667 34.6742 13.424 34.4395 13.424C34.0875 13.424 33.7408 13.5627 33.3995 13.84C33.0582 14.1067 32.7702 14.5333 32.5355 15.12V20H30.9195V12.176ZM42.7681 15.68C42.7681 15.9787 42.7468 16.256 42.7041 16.512H37.5361C37.6108 17.3013 37.8775 17.904 38.3361 18.32C38.8055 18.7253 39.3708 18.928 40.0321 18.928C40.6615 18.928 41.2855 18.7307 41.9041 18.336L42.4641 19.36C41.6321 19.9147 40.7521 20.192 39.8241 20.192C39.1095 20.192 38.4641 20.0267 37.8881 19.696C37.3121 19.3653 36.8535 18.8907 36.5121 18.272C36.1815 17.6533 36.0161 16.928 36.0161 16.096C36.0161 15.2747 36.1815 14.5547 36.5121 13.936C36.8535 13.3067 37.2961 12.8267 37.8401 12.496C38.3841 12.1547 38.9655 11.984 39.5841 11.984C40.5975 11.984 41.3815 12.32 41.9361 12.992C42.4908 13.6533 42.7681 14.5493 42.7681 15.68ZM41.3601 15.392C41.3601 14.7093 41.2108 14.1813 40.9121 13.808C40.6135 13.4347 40.1815 13.248 39.6161 13.248C39.1255 13.248 38.6881 13.4293 38.3041 13.792C37.9201 14.1547 37.6748 14.688 37.5681 15.392H41.3601ZM46.2443 20.192C45.5616 20.192 45.0069 19.9893 44.5803 19.584C44.1536 19.168 43.9403 18.6133 43.9403 17.92C43.9403 17.0773 44.3136 16.432 45.0603 15.984C45.8069 15.5253 46.9963 15.2053 48.6283 15.024C48.6069 13.872 48.1056 13.296 47.1243 13.296C46.4629 13.296 45.7109 13.5627 44.8683 14.096L44.2603 13.008C45.3269 12.3253 46.3776 11.984 47.4123 11.984C48.3616 11.984 49.0709 12.272 49.5403 12.848C50.0096 13.4133 50.2443 14.2293 50.2443 15.296V20H48.9163L48.7883 19.104H48.7403C47.8763 19.8293 47.0443 20.192 46.2443 20.192ZM46.7403 18.912C47.0709 18.912 47.3803 18.8373 47.6683 18.688C47.9563 18.5387 48.2763 18.304 48.6283 17.984V16.048C47.4976 16.1867 46.6923 16.4 46.2123 16.688C45.7429 16.976 45.5082 17.3493 45.5082 17.808C45.5082 18.1707 45.6203 18.448 45.8443 18.64C46.0683 18.8213 46.3669 18.912 46.7403 18.912ZM54.9498 20.192C53.3711 20.192 52.5818 19.28 52.5818 17.456V13.472H51.4458V12.256L52.6618 12.176L52.8538 10.016H54.1978V12.176H56.2458V13.472H54.1978V17.456C54.1978 17.936 54.2884 18.2987 54.4698 18.544C54.6511 18.7787 54.9444 18.896 55.3498 18.896C55.5951 18.896 55.8778 18.832 56.1978 18.704L56.4858 19.904C55.9098 20.096 55.3978 20.192 54.9498 20.192ZM63.9088 15.68C63.9088 15.9787 63.8874 16.256 63.8448 16.512H58.6768C58.7514 17.3013 59.0181 17.904 59.4768 18.32C59.9461 18.7253 60.5114 18.928 61.1727 18.928C61.8021 18.928 62.4261 18.7307 63.0448 18.336L63.6048 19.36C62.7728 19.9147 61.8928 20.192 60.9648 20.192C60.2501 20.192 59.6048 20.0267 59.0288 19.696C58.4528 19.3653 57.9941 18.8907 57.6528 18.272C57.3221 17.6533 57.1568 16.928 57.1568 16.096C57.1568 15.2747 57.3221 14.5547 57.6528 13.936C57.9941 13.3067 58.4368 12.8267 58.9808 12.496C59.5248 12.1547 60.1061 11.984 60.7248 11.984C61.7381 11.984 62.5221 12.32 63.0768 12.992C63.6314 13.6533 63.9088 14.5493 63.9088 15.68ZM62.5008 15.392C62.5008 14.7093 62.3514 14.1813 62.0528 13.808C61.7541 13.4347 61.3221 13.248 60.7568 13.248C60.2661 13.248 59.8288 13.4293 59.4448 13.792C59.0608 14.1547 58.8154 14.688 58.7088 15.392H62.5008Z" fill="white"/>
</svg>
