<?xml version="1.0" encoding="utf-8"?>
<!-- Generator: Adobe Illustrator 19.0.0, SVG Export Plug-In . SVG Version: 6.00 Build 0)  -->
<svg version="1.1" id="Layer_1" xmlns="http://www.w3.org/2000/svg" xmlns:xlink="http://www.w3.org/1999/xlink" x="0px" y="0px"
	 viewBox="1593.6 -260 806.4 1080" style="enable-background:new 1593.6 -260 806.4 1080;" xml:space="preserve">
<style type="text/css">
	.st0{fill:#FFFFFF;}
	.st1{opacity:0.55;fill:#D9E8FF;enable-background:new    ;}
	.st2{opacity:0.5;fill:#B3C9FF;enable-background:new    ;}
	.st3{fill:#ACC9F9;}
	.st4{opacity:0.25;}
	.st5{opacity:0.25;enable-background:new    ;}
	.st6{fill:#BDD0FF;}
	.st7{fill:#B3C9FF;}
	.st8{opacity:0.55;fill:#DBE0FE;enable-background:new    ;}
	.st9{fill:#DBE0FE;}
	.st10{fill:url(#SVGID_1_);}
	.st11{opacity:0.75;fill:#D62984;enable-background:new    ;}
	.st12{fill:url(#SVGID_2_);}
	.st13{opacity:0.25;fill:#5890F4;enable-background:new    ;}
	.st14{fill:url(#SVGID_3_);}
	.st15{fill:#FFCCB0;}
	.st16{fill:#7C3327;}
	.st17{fill:#F4713D;}
	.st18{fill:#E25833;}
	.st19{fill:#30334C;}
	.st20{fill:#262A3F;}
	.st21{fill:#DB856E;}
	.st22{fill:#3377FF;}
	.st23{fill:#6490FF;}
	.st24{fill:#2660EF;}
	.st25{fill:#ED9C80;}
	.st26{fill:#222B70;}
</style>
<path class="st0" d="M2400,820V-260h-801.7l0,0c-14.8,107.4,4.5,249.9,76.7,344.3c138.1,180.6,589.7,437.8,632.4,735.7H2400z"/>
<g>
	<path class="st1" d="M1879.4,48.9c43.2,0,78.3-3.2,78.3-7.3s-35.1-7.3-78.3-7.3c-43.3,0-78.3,3.2-78.3,7.3S1836.1,48.9,1879.4,48.9
		z"/>
	<path class="st1" d="M2082.1,61.1c79.3,0,143.6-3.2,143.6-7.3c0-4-64.3-7.3-143.6-7.3c-79.3,0-143.6,3.2-143.6,7.3
		C1938.4,57.9,2002.7,61.1,2082.1,61.1z"/>
	<path class="st1" d="M2251.8,90c50.4,0,91.2-3.2,91.2-7.3c0-4-40.8-7.3-91.2-7.3c-50.4,0-91.3,3.2-91.3,7.3
		C2160.5,86.7,2201.4,90,2251.8,90z"/>
	<path class="st1" d="M2142.3,79.3c10,0,18.2-1.7,18.2-3.9c0-2.1-8.1-3.9-18.2-3.9c-10.1,0-18.2,1.7-18.2,3.9
		C2124.1,77.6,2132.3,79.3,2142.3,79.3z"/>
	<path class="st2" d="M2185.9-133.9c0.3-2.5,0.3-4.9,0.2-7.4c-0.2-2.5-0.8-4.9-1.4-7.3l-8.9,2.2c-0.9-2.5-2.2-4.8-3.5-6.9l6.8-6.2
		c-3.1-3.9-6.9-7.1-11.3-9.4l-4.8,7.9c-2.3-1.1-4.8-2-7.4-2.3l0.5-9.1c-2.5-0.3-4.9-0.3-7.4-0.2c-2.5,0.2-4.9,0.8-7.3,1.4l2.2,9
		c-2.5,0.9-4.8,2.2-6.9,3.5l-6.2-6.8c-3.8,3.1-7.1,6.9-9.4,11.3l7.9,4.8c-1.1,2.3-2,4.8-2.3,7.4l-9.1-0.5c-0.3,2.5-0.3,4.9-0.1,7.4
		c0.1,2.5,0.8,4.9,1.4,7.3l8.9-2.2c0.9,2.5,2.2,4.8,3.5,6.9l-6.8,6.2c3.1,3.9,6.9,7.1,11.3,9.4l4.8-7.9c2.3,1.1,4.8,2,7.4,2.3
		l-0.5,9.1c2.5,0.3,4.9,0.3,7.4,0.2c2.5-0.2,4.9-0.8,7.2-1.4l-2.1-8.9c2.5-0.9,4.8-2.2,6.9-3.5l6.2,6.8c3.9-3.1,7.1-6.9,9.4-11.3
		l-7.9-4.8c1.1-2.3,2-4.8,2.3-7.4L2185.9-133.9z M2153-124.2c-7.7,0.8-14.6-5.1-15.4-12.8c-0.8-7.7,5.1-14.7,12.8-15.4
		c7.7-0.8,14.6,5.1,15.4,12.8C2166.5-131.8,2160.7-124.8,2153-124.2z"/>
	<path class="st3" d="M2192.4-15.7c4.3-5.4,8.8-11.1,10.2-17.9c1.2-6.3,3.1-13.3,2.9-19.6c-0.2-6.5,0.9-12.8,3.1-19
		c6.6-19,14.6-15.9,17.4-14c2.8,1.9,3.7,5.2,3.2,10.3c-0.3,4.2-5.7,23.3,1.1,21.1c7.7-2.5,10-22.7,12-29.3c2.9-9.9,8.5-20.2,17-26.2
		c4.2-2.9,10.2-4.8,14.5-2c2.6,1.7,4,4.8,4.6,7.7c1.8,9.1-2.3,17.9-6.8,25.6c-1.9,3.2-15.6,17.6-5.7,17.3
		c2.3-0.2,23.6-12.8,23.4,3.1c0,5.6-6.9,10.5-17.6,16.4c-6.6,3.7-30.7,12.3-30.4,18.7c0.3,6.2,14.2-2,11.3,9.3
		c-1.7,6.3-10.5,9.9-16.5,11.6c-2.8,0.8-5.9,1.1-8.6,2c-3.2,1.2-7.6,4.5-5.7,8.5c0.8,1.7,2.8,2.8,3.5,4.6c0.8,1.9,0.2,4-1.1,5.6
		c-1.2,1.5-2.9,2.5-4.8,3.2c-11.4,5.2-24.8,4.6-36.7,0.6c-11.9-4-22.5-11-32.5-18.5"/>
	<g class="st4">
		<g class="st5">
			<path class="st0" d="M2200-0.6c-0.1,0-0.3-0.1-0.4-0.2c-0.2-0.2-0.1-0.5,0.1-0.7c44.8-35.9,66.2-100.5,66.4-101.2
				c0.1-0.3,0.4-0.4,0.6-0.3c0.3,0.1,0.4,0.4,0.3,0.6c-0.2,0.7-21.7,65.5-66.7,101.6C2200.2-0.6,2200.1-0.6,2200-0.6z"/>
		</g>
		<g class="st5">
			<path class="st0" d="M2235.9-40.8c-0.3,0-0.5-0.2-0.5-0.5c0-0.3,0.2-0.5,0.5-0.5c18.6-0.2,43.1-14.8,43.4-14.9
				c0.2-0.1,0.5-0.1,0.7,0.2c0.1,0.2,0.1,0.5-0.2,0.7C2279.5-55.7,2254.8-41,2235.9-40.8C2235.9-40.8,2235.9-40.8,2235.9-40.8z"/>
		</g>
		<g class="st5">
			<path class="st0" d="M2222.8-23.1c-0.2,0-0.4-0.1-0.4-0.3c-7.8-14.7-4.1-42.5-1.1-55.1c0.1-0.3,0.3-0.4,0.6-0.4
				c0.3,0.1,0.4,0.3,0.4,0.6c-3,12.5-6.6,40,1,54.4c0.1,0.2,0,0.5-0.2,0.7C2222.9-23.1,2222.9-23.1,2222.8-23.1z"/>
		</g>
		<g class="st5">
			<path class="st0" d="M2208.6-6.4c-0.6,0-1.3,0-1.9,0c-0.3,0-0.5-0.2-0.5-0.5c0-0.3,0.2-0.5,0.5-0.5c27.2,0.3,37.2-6.2,37.3-6.2
				c0.2-0.2,0.5-0.1,0.7,0.1c0.2,0.2,0.1,0.5-0.1,0.7C2244.2-12.6,2234.8-6.4,2208.6-6.4z"/>
		</g>
		<g class="st5">
			<path class="st0" d="M2219.4,14c-3.2,0-15.6-0.5-25.6-8.3c-0.2-0.2-0.3-0.5-0.1-0.7c0.2-0.2,0.5-0.3,0.7-0.1
				c11.3,8.7,25.6,8.1,25.7,8.1c0.3,0,0.5,0.2,0.5,0.5c0,0.3-0.2,0.5-0.5,0.5C2220.2,13.9,2219.9,14,2219.4,14z"/>
		</g>
	</g>
	<path class="st6" d="M2281.7,25.3c-5.1-17.3-1.2-36,4.6-52.9c1.4-4.2,3.1-8.3,6.2-11.3c1.5-1.5,3.7-2.9,5.9-2.5
		c3.2,0.6,4.5,4.5,4.9,7.7c2.3,20.4-11.1,39-14.5,59.4"/>
	<path class="st6" d="M2267.3,16.7c-0.9-5.1-2.3-10.2-4.8-14.8c-2.5-4.6-6-8.8-10.6-11.3c-2-1.1-4.8-1.7-6.5-0.2
		c-1.8,1.7-1.2,4.8-0.2,7.1c6.2,12.5,21.9,18.2,27.9,30.7"/>
	<path class="st6" d="M2274.6,26.9c-3.9-7.3-7.7-14.8-9.9-22.8c-2.1-8-2.6-16.7,0.2-24.5c0.8-2.5,2.9-5.2,5.4-4.3
		c0.9,0.3,1.5,1.1,2.2,1.9c4.5,5.9,6.2,13.4,7.1,20.8c0.8,7.4,0.8,15,2.5,22.2c0.3,1.1,0.6,2.2,1.2,3.1c0.8,0.8,2.2,1.1,2.9,0.5
		c0.5-0.3,0.8-0.9,0.9-1.5c1.1-3.2,17.1-36.6,31.6-38.9c1.2-0.2,2.3-0.3,3.5-0.2c18.2,3.1-22.8,41.2-23.1,46.8
		c14.8-12.8,18-15.1,24.8-16.4c5.2-0.9,14.3,3.7,11.3,10c-2,4.5-7.2,6.3-12,7.4c-5.2,1.1-10.6,1.4-15.7,2.8
		c-5.1,1.4-10.2,4.3-12.8,9"/>
	<path class="st3" d="M1962.3-50.9c-14.7-7.7-6-22.1-8.2-31.3c-3.6-15.3-7.7-18.4-16-15.4c-4.2,1.4-6.3,7.4-7.3,11.3
		c-1.4,6.2-0.3,12.5,0.5,18.7c0.8,5.2,3.9,16.8-2.5,18.8c-6.3,2-7.2-6.3-14.9-12.5c-3.4-2.8-12.8-3.9-14.8,2.9
		c-3.7,12,2,17.7,30.5,33.8c4.9,2.8,15.4,5.6,14.8,8.3c-0.6,2.8-8-0.6-13.6,1.4c-8.8,3.1-4.9,8.6-1.7,10.3
		c24.8,14.4,44.8,8,54.6,12.5c4.2,2,6.9,6,10.3,9.3c7.2,7.3,10,6,20.3,5.7c6-0.2,12.2-1.9,16.7-5.9c1.8-1.7,3.4-4.2,2.6-6.5
		c-0.5-1.5-1.9-2.5-3.2-3.2c-9.3-5.7-20.2-8.2-29.6-13.6c-14.3-8-24.7-22.8-27.3-39"/>
	<g class="st4">
		<g class="st5">
			<path class="st0" d="M2004.1,16.7c-0.1,0-0.1,0-0.2,0c-5.7-2.4-10.2-6.7-14.6-10.8l-0.6-0.6c-12.7-12.1-25.8-25.3-33.9-41.5
				c-6.1-12-9.2-25.4-12.2-38.3l-0.5-2.3c-0.7-3.4-1.4-7-1.4-10.6c0-0.3,0.2-0.5,0.5-0.5s0.5,0.2,0.5,0.5c0,3.5,0.7,7,1.4,10.4
				l0.5,2.2c3,12.9,6.1,26.2,12.1,38.1c8,16.1,21,29.2,33.6,41.2l0.6,0.6c4.3,4.1,8.8,8.3,14.3,10.6c0.3,0.1,0.4,0.4,0.3,0.7
				C2004.5,16.6,2004.3,16.7,2004.1,16.7z"/>
		</g>
		<g class="st5">
			<path class="st0" d="M1961.2-25.3c0,0-0.1,0-0.1,0c-17.4-3.6-39.3-9.8-55-25.3c-0.2-0.2-0.2-0.5,0-0.7c0.2-0.2,0.5-0.2,0.7,0
				c15.4,15.3,37.2,21.4,54.5,25c0.3,0.1,0.4,0.3,0.4,0.6C1961.7-25.4,1961.5-25.3,1961.2-25.3z"/>
		</g>
		<g class="st5">
			<path class="st0" d="M1976.1-1.3c-10,0-25.1-3.2-34.8-5.2l-2.9-0.6c-0.3-0.1-0.4-0.3-0.4-0.6c0.1-0.3,0.3-0.4,0.6-0.4l2.9,0.6
				c11.7,2.5,31.2,6.6,40,4.8c0.3-0.1,0.5,0.1,0.6,0.4c0.1,0.3-0.1,0.5-0.4,0.6C1980.1-1.5,1978.2-1.3,1976.1-1.3z"/>
		</g>
	</g>
	<path class="st7" d="M1979.4-153.2l3.1-4.3c-3.1-2.5-6.6-4.2-10.3-5.1l-1.7,5.1c-2.2-0.5-4.3-0.6-6.5-0.5l-0.9-5.2
		c-1.8,0.2-3.9,0.6-5.7,1.2c-1.8,0.6-3.7,1.5-5.2,2.5l2.5,4.8c-1.8,1.2-3.5,2.6-4.9,4.2l-4.3-3.1c-2.5,3.1-4.2,6.6-5.1,10.3l5.1,1.7
		c-0.5,2.2-0.6,4.3-0.5,6.5l-5.2,0.9c0.2,1.9,0.6,3.9,1.2,5.7c0.6,1.9,1.5,3.7,2.5,5.2l4.8-2.5c1.2,1.9,2.6,3.5,4.2,4.9l-3.1,4.3
		c3.1,2.5,6.6,4.2,10.3,5.1l1.7-5.1c2.2,0.5,4.3,0.6,6.5,0.5l0.9,5.2c1.8-0.2,3.8-0.6,5.7-1.2c1.9-0.6,3.7-1.5,5.2-2.5l-2.5-4.8
		c1.8-1.2,3.6-2.6,4.9-4.2l4.3,3.1c2.5-3.1,4.2-6.6,5.1-10.3l-5.1-1.7c0.5-2.2,0.6-4.3,0.5-6.5l5.2-0.9c-0.2-1.9-0.6-3.9-1.2-5.7
		c-0.6-1.9-1.5-3.7-2.5-5.2l-4.8,2.5C1982.5-150.1,1981.1-151.8,1979.4-153.2z M1970.2-124.4c-7.1,2.3-14.7-1.4-17-8.5
		c-2.3-7.1,1.4-14.7,8.5-17c7.1-2.3,14.6,1.4,17,8.5C1981-134.2,1977.1-126.7,1970.2-124.4z"/>
	<path class="st0" d="M2200.6,53.9h-241.5v-184.1c0-7.7,6.2-13.9,13.9-13.9h213.6c7.7,0,13.9,6.2,13.9,13.9V53.9H2200.6z"/>
	<path class="st8" d="M2053.9,38.9h-74.1c-1.7,0-3.2-1.4-3.2-3.2V2c0-1.7,1.4-3.2,3.2-3.2h74.1c1.7,0,3.2,1.4,3.2,3.2v33.6
		C2057.1,37.5,2055.7,38.9,2053.9,38.9z"/>
	<path class="st8" d="M2118.8-106.6h-140.4c-0.9,0-1.8-0.8-1.8-1.9v-3.6c0-0.9,0.8-1.9,1.8-1.9h140.4c0.9,0,1.8,0.8,1.8,1.9v3.6
		C2120.6-107.4,2119.8-106.6,2118.8-106.6z"/>
	<path class="st8" d="M2118.8-91.8h-140.4c-0.9,0-1.8-0.8-1.8-1.9v-3.5c0-0.9,0.8-1.9,1.8-1.9h140.4c0.9,0,1.8,0.8,1.8,1.9v3.5
		C2120.6-92.6,2119.8-91.8,2118.8-91.8z"/>
	<path class="st8" d="M2118.8-77h-140.4c-0.9,0-1.8-0.8-1.8-1.9v-3.5c0-0.9,0.8-1.9,1.8-1.9h140.4c0.9,0,1.8,0.8,1.8,1.9v3.5
		C2120.6-77.8,2119.8-77,2118.8-77z"/>
	<path class="st8" d="M2118.8-62.2h-140.4c-0.9,0-1.8-0.8-1.8-1.9v-3.6c0-0.9,0.8-1.9,1.8-1.9h140.4c0.9,0,1.8,0.8,1.8,1.9v3.6
		C2120.6-62.9,2119.8-62.2,2118.8-62.2z"/>
	<path class="st8" d="M2118.8-47.4h-140.4c-0.9,0-1.8-0.8-1.8-1.9v-3.5c0-0.9,0.8-1.9,1.8-1.9h140.4c0.9,0,1.8,0.8,1.8,1.9v3.5
		C2120.6-48.1,2119.8-47.4,2118.8-47.4z"/>
	<path class="st8" d="M2118.8-32.5h-140.4c-0.9,0-1.8-0.8-1.8-1.9v-3.6c0-0.9,0.8-1.9,1.8-1.9h140.4c0.9,0,1.8,0.8,1.8,1.9v3.6
		C2120.6-33.3,2119.8-32.5,2118.8-32.5z"/>
	<path class="st9" d="M2121.5,30.1l1.4,2.9l3.2,0.5l-2.3,2.2l0.5,3.2l-2.8-1.5l-2.9,1.5l0.6-3.2l-2.3-2.2l3.2-0.5L2121.5,30.1z"/>
	<path class="st9" d="M2135.7,30.1l1.4,2.9l3.2,0.5l-2.3,2.2l0.6,3.2l-2.9-1.5l-2.9,1.5l0.6-3.2l-2.3-2.2l3.2-0.5L2135.7,30.1z"/>
	<path class="st9" d="M2149.9,30.1l1.5,2.9l3.1,0.5l-2.3,2.2l0.6,3.2l-2.9-1.5l-2.8,1.5l0.5-3.2l-2.3-2.2l3.2-0.5L2149.9,30.1z"/>
	<path class="st9" d="M2164.2,30.1l1.4,2.9l3.2,0.5l-2.3,2.2l0.5,3.2l-2.8-1.5l-2.9,1.5l0.6-3.2l-2.3-2.2l3.1-0.5L2164.2,30.1z"/>
	<path class="st9" d="M2178.4,30.1l1.4,2.9l3.2,0.5l-2.3,2.2l0.5,3.2l-2.8-1.5l-2.9,1.5l0.6-3.2l-2.3-2.2l3.2-0.5L2178.4,30.1z"/>
	
		<linearGradient id="SVGID_1_" gradientUnits="userSpaceOnUse" x1="2023.83" y1="597.7935" x2="2139.73" y2="597.7935" gradientTransform="matrix(1 0 0 -1 0 560)">
		<stop  offset="0" style="stop-color:#F84E49"/>
		<stop  offset="1" style="stop-color:#EF3598"/>
	</linearGradient>
	<path class="st10" d="M2108.1-83.3c-17.1-5.7-26.2-16.2-26.2-16.2s-9.3,10.5-26.2,16.2c-15.3,5.1-31.6,4.5-31.6,4.5
		s0,55.7,19.1,78.1c17.9,21,38.8,24.7,38.8,24.7s21-3.7,38.8-24.7c19.1-22.4,19.1-78.1,19.1-78.1S2123.4-78.2,2108.1-83.3z"/>
	<path class="st11" d="M2079.9,15.1c-4.8-1.2-19.4-6.3-32.4-21.4c-11.7-13.9-15.7-45.7-16.8-64c6.8-0.5,16.3-1.5,25.6-4.6
		c10.6-3.5,18.5-8.6,23.6-12.7c5.1,4,12.9,9.3,23.6,12.7c9.2,3.1,18.8,4.3,25.6,4.6c-0.9,18.4-4.9,50.2-16.8,64
		C2099.3,8.7,2084.5,13.7,2079.9,15.1z"/>
	
		<linearGradient id="SVGID_2_" gradientUnits="userSpaceOnUse" x1="2033.67" y1="596.096" x2="2126.02" y2="596.096" gradientTransform="matrix(1 0 0 -1 0 560)">
		<stop  offset="0" style="stop-color:#F84E49"/>
		<stop  offset="1" style="stop-color:#EF3598"/>
	</linearGradient>
	<path class="st12" d="M2079.9,12.2c-5.1-1.4-18.4-6.3-30.2-20.4c-10.8-12.7-14.8-41.5-15.9-59.7c6.6-0.6,15.1-1.9,23.4-4.6
		c9.9-3.2,17.4-7.9,22.7-11.9c5.2,3.9,12.8,8.5,22.6,11.9c8.3,2.8,16.8,4,23.4,4.6c-1.2,18.2-5.2,47.1-15.9,59.7
		C2098.1,5.9,2084.8,10.8,2079.9,12.2z"/>
	<path class="st0" d="M2079.9-38.1c5.4,0,9.7-4.4,9.7-9.7c0-5.4-4.4-9.7-9.7-9.7c-5.4,0-9.7,4.4-9.7,9.7
		C2070.2-42.5,2074.5-38.1,2079.9-38.1z"/>
	<path class="st0" d="M2079.9-17.4c-2.3,0-4.2-1.9-4.2-4.2v-22.5c0-2.3,1.9-4.2,4.2-4.2c2.3,0,4.2,1.9,4.2,4.2v22.5
		C2083.9-19.3,2082.1-17.4,2079.9-17.4z"/>
	<path class="st13" d="M2106.1-83.3c-17.1-5.7-26.2-16.2-26.2-16.2V23.9c0,0,21-3.7,38.8-24.7c19.1-22.4,19.1-78.1,19.1-78.1
		S2121.4-78.2,2106.1-83.3z"/>
	
		<linearGradient id="SVGID_3_" gradientUnits="userSpaceOnUse" x1="1959.0699" y1="693.857" x2="2200.5901" y2="693.857" gradientTransform="matrix(1 0 0 -1 0 560)">
		<stop  offset="0" style="stop-color:#F84E49"/>
		<stop  offset="1" style="stop-color:#EF3598"/>
	</linearGradient>
	<path class="st14" d="M2186.7-144.1h-213.8c-7.7,0-13.9,6.2-13.9,13.9v6.6h241.5v-6.6C2200.6-137.9,2194.4-144.1,2186.7-144.1z"/>
	<path class="st0" d="M2162.5-131.8c1.2,0,2.2-1,2.2-2.2c0-1.2-1-2.2-2.2-2.2s-2.2,1-2.2,2.2
		C2160.4-132.7,2161.3-131.8,2162.5-131.8z"/>
	<path class="st0" d="M2173.6-131.8c1.2,0,2.2-1,2.2-2.2c0-1.2-1-2.2-2.2-2.2c-1.2,0-2.2,1-2.2,2.2
		C2171.5-132.7,2172.4-131.8,2173.6-131.8z"/>
	<path class="st0" d="M2184.7-131.8c1.2,0,2.2-1,2.2-2.2c0-1.2-1-2.2-2.2-2.2c-1.2,0-2.2,1-2.2,2.2
		C2182.6-132.7,2183.5-131.8,2184.7-131.8z"/>
	<path class="st3" d="M1857,38.1c0,0-45.6,0-56.7,0c-11.1,0-9.3-13.1,21.6-7.3c-7.6-3.4-7.6-8-6.9-9.3c0.6-1.1,2.8-1.9,4-1.7
		c3.8,0.3,6.9,2.8,10.3,4.6c-6.2-4-10-11.4-9.9-18.8c0-2,0.5-4.2,2-5.6c1.7-1.5,4.5-2.6,6.6-2.2c4.2,0.8,11.9,7.7,14.8,10.8
		c-15.6-14.4-21.4-36.9-11.6-42c16.8-8.6,29.4,40.4,29.4,40.4s-8.3-36.9,5.7-37c14-0.2,2.6,42.7,2.6,42.7"/>
	<path class="st0" d="M2315.6,33.2c-2.8,0-5.4,0.5-7.9,1.4c-0.6-20.8-17.6-37.5-38.5-37.5c-21.3,0-38.5,17.3-38.5,38.6
		c0,0.9,0,2,0.2,2.9c-3.7-6.3-10.5-10.5-18.4-10.5c-11.7,0-21.3,9.6-21.3,21.3c0,1.7,0.2,3.2,0.6,4.8c-2.2-1.2-4.8-2-7.4-2
		c-8.5,0-15.3,6.8-15.3,15.3c0,8.5,6.8,15.3,15.3,15.3c8.5,0,120.5,0,131.3,0c13.7,0,24.8-11.1,24.8-24.8
		C2340.5,44.1,2329.3,33.2,2315.6,33.2z"/>
	<path class="st0" d="M1851.9,11.6c1.9,0,3.6,0.3,5.2,0.9c0.5-13.6,11.6-24.5,25.3-24.5c14,0,25.3,11.4,25.3,25.3
		c0,0.6,0,1.2-0.2,1.9c2.5-4.2,6.9-6.9,12-6.9c7.7,0,14,6.3,14,14c0,1.1-0.2,2.2-0.3,3.2c1.4-0.8,3.1-1.2,4.9-1.2
		c5.6,0,10,4.5,10,10c0,5.6-4.5,10-10,10s-79.2,0-86.3,0c-9.1,0-16.3-7.3-16.3-16.4C1835.6,18.8,1843,11.6,1851.9,11.6z"/>
	<path class="st9" d="M2200-75l5.7-2c-1.2-4.3-3.2-8.2-6.2-11.6l-4.9,3.5c-1.6-1.9-3.6-3.4-5.7-4.6l2.6-5.6c-1.8-1.1-3.8-2-6-2.6
		c-2.2-0.6-4.3-1.1-6.5-1.2l-0.9,6c-2.5-0.2-4.9,0.2-7.2,0.8l-2-5.7c-4.3,1.2-8.2,3.2-11.6,6.2l3.5,4.9c-1.9,1.5-3.4,3.6-4.6,5.7
		l-5.5-2.6c-1.1,1.9-2,3.9-2.6,6c-0.6,2.2-1.1,4.3-1.2,6.5l6,0.9c-0.2,2.5,0.1,4.9,0.8,7.3l-5.7,2c1.2,4.3,3.2,8.2,6.2,11.6l4.9-3.5
		c1.5,1.9,3.6,3.4,5.7,4.6l-2.6,5.6c1.9,1.1,3.9,2,6,2.6c2.1,0.6,4.3,1.1,6.5,1.2l0.9-6c2.5,0.2,4.9-0.2,7.3-0.8l2,5.7
		c4.3-1.2,8.2-3.2,11.6-6.2l-3.5-4.9c1.9-1.5,3.4-3.5,4.6-5.7l5.6,2.6c1.1-1.9,2-3.9,2.6-6c0.6-2.2,1.1-4.3,1.2-6.5l-6-0.9
		C2200.7-70.2,2200.6-72.7,2200-75z M2172.8-56.3c-6.9-2.2-10.9-9.6-8.8-16.5c2.2-6.9,9.6-11,16.5-8.8c6.9,2.2,10.9,9.6,8.8,16.5
		C2187.3-58.2,2179.9-54.2,2172.8-56.3z"/>
	<path class="st3" d="M2185.5,107.9c16.7,0,30.2-1.7,30.2-3.9s-13.5-3.9-30.2-3.9c-16.7,0-30.2,1.7-30.2,3.9
		S2168.8,107.9,2185.5,107.9z"/>
	<path class="st15" d="M2200.7,94c0,0,0.3,4.2,0.5,5.2c0.2,1.1,3.6,0.9,3.9,0.3c0.3-0.6,0.1-5.6,0.1-5.6"/>
	<path class="st16" d="M2206.1,100.5c0,1.1-0.2,2.9-0.2,2.9l-3.8,0.3l-0.3-0.6c0,0-1.2,0.8-2.2,0.8l-3.2,0.2c-2.5,0.2-3.9,0-3.9-0.5
		c-0.3-1.7,2.5-1.9,3.2-1.9c2.2-0.2,4.5-1.4,4.9-2.5c0.3-0.8,0.2-1.1,0.6-0.9c0,0,0.5,0,0.8,0.5c0.5,0.8,1.2,1.2,2.2,0.9
		c0.5-0.2,0.9-0.3,1.2-0.8C2205.2,99.1,2206,99.2,2206.1,100.5z"/>
	<path class="st15" d="M2174.1,95.2c0,0,0,2.9,0.1,4c0.2,1.1,3.6,0.8,3.9,0.2c0.3-0.6-0.1-5.6-0.1-5.6"/>
	<path class="st16" d="M2179.2,100.5c0.2,1.1,0.2,3.2,0.2,3.2l-3.6,0.8l-0.5-0.6c0,0-0.9,0.8-2,1.1c-0.8,0.2-2.5,0.3-3.2,0.3
		c-2.9-0.2-4.8-1.1-4.9-1.5c-0.5-1.7,3.4-1.5,4.2-1.5c2.2-0.2,3.7-1.9,4.2-2.9c0.3-0.8,0.2-1.1,0.6-0.9c0,0,0.5,0,0.8,0.5
		c0.5,0.8,1.4,1.2,2.2,0.9c0.5-0.2,0.9-0.3,1.4-0.8C2178.2,99.1,2179,99.4,2179.2,100.5z"/>
	<path class="st17" d="M2194.9-22.8c0.3-0.5,0.6,4.3,5.2,6.6c4.8,2.5,12.5,1.1,14.9,0.2c3.9-1.5,2.6-26.4-1.8-34.4
		c-1.1-1.9-5.1-2.8-7.7-3.2c-0.8,6.8,1.9,23.1,5.7,30.1C2210.9-22.2,2194.9-22.8,2194.9-22.8z"/>
	<path class="st18" d="M2213.5-21.7c1.1-1.5-0.6-18.8-0.5-21.4l-5.2,9.7c0.9,4-2.9,11-7.7,10.8l-0.6,0.9
		C2202.1-21.1,2212.3-20.2,2213.5-21.7z"/>
	<path class="st19" d="M2192.6,42.5c0.3,6,0.8,12.3,1.7,16.7c0.8,3.7,9.1,1.5,8.9-1.9c-0.3-4.6,1.7-13.1,3.5-35.3
		c0.3-3.4,1.9-3.7,2.8-10.6c0.9-6.9-2.8-14-2.8-14l-14.3-0.9l-0.2,20.1v6.8C2192.1,23.3,2192,32.6,2192.6,42.5z"/>
	<path class="st19" d="M2203.1,56.6c0,0,2.8,5.1,3.1,9.9c0.6,7.1-0.2,30.4-0.2,30.4s-3.7,0.8-5.5,0.2c0,0-6.6-39-6.9-43.4
		C2193.2,49.4,2203.1,56.6,2203.1,56.6z"/>
	<path class="st20" d="M2192.6,42.5c1.1-3.2,3.1-9.6,4.6-13.1c2.3-4.9,3.7-7.9,3.7-7.9c8.2-8.6,0.9-19,0.9-19s-4.2,5.6-4.6,6.2
		c-0.5,0.5-3.1,5.2-5.1,7.9v6.8C2192.1,23.3,2192,32.6,2192.6,42.5z"/>
	<path class="st19" d="M2180.7,59c-0.3-5.2,3.4-11.6,3.4-11.6s-10.9-8.3-11.1-10.3c0,0-1.5,12.2-2.2,16.1
		c-0.9,6.6,2.3,44.1,2.3,44.1s2.3,0.6,5.5,0c0,0,0.6-14.5,2.9-24.2C2182.9,68.2,2181,60.2,2180.7,59z"/>
	<path class="st19" d="M2181.6-2.8c-4.3,9.6-8.9,40.3-10,50.9c-0.5,4.5,3.2,11.3,7.6,7.3c5.2-4.8,12.5-28.7,15.1-32.6
		c2.6-3.9,12.3-7.6,5.7-27.5"/>
	<path class="st15" d="M2202.1-56.2c0,0-1.2-4-0.6-6.8c0.5-2.9,2.3-8.2,1.5-12c-0.6-3.9-5.6-7.3-10.8-6.6c-5.2,0.5-6.8,5.6-7.6,8.5
		c-0.9,2.9-0.8,7.4-0.5,9.7c0.2,2.5,1.5,4.3,2.5,4.8c0.9,0.5,4.2-0.2,4.8,0.5c0.6,0.6,1.1,4.3,1.1,4.3"/>
	<path class="st18" d="M2204.4-52.9c0,0-0.1-2.3-0.8-3.2c-0.8-0.9-6-1.2-7.7-1.2c-1.5,0.2-5.7,1.9-6.3,2.2c-0.6,0.3,0.3,2.6,0.3,2.6
		L2204.4-52.9z"/>
	<path class="st16" d="M2202-61.1c0,0-7.1,0.2-8.6,0c-2-0.3-4.6-1.9-4.8-4.3c1.7,0,1.9-3.7,0.9-5.1c-0.9-1.4-2.2-0.5-2.3,0.8
		c-0.2,1.2,0,0.9-0.3,1.1c-0.5,0.3-1.1,0.2-0.9-2.3c0.2-2.2,0.3-2.8,0.9-4.2c0.6-1.4,1.1-1.4,1.5-1.7c-0.6-0.3-1.4-0.3-2.6-2.3
		c-1.4-2.3-1.2-4.6,1.4-6.9c0,0.6,0.8,1.9,2.5,2.3c3.1,0.9,8.9,0.2,11.7,1.7c1.2,0.6,2.3,2.3,1.7,3.4c0,0,2.3-0.3,2.5,4.2
		c0.3,9.3-2.8,10-3.1,11.4C2202.3-61.6,2202.6-61.6,2202-61.1z"/>
	<path class="st17" d="M2181.6-2.8c0.6,0.3,1.2,0.6,2,0.9c1.7,0.5,3.4,0.2,5.1,0c1.7-0.2,3.5-0.3,5.2-0.5c9.3-0.5,12.3,1.9,13.9-0.5
		c0.3-0.5,0.5-1.1,0.3-1.9c-0.3-2-0.9-2.8-0.8-4.8c0.1-1.7,0.6-3.7,0.9-6.2c1.5-8,4.5-20.5,4.9-27.9c0.6-10.6-10.2-10.5-10.2-10.5
		c-15.9-0.9-21.7,3.5-22.6,10.3c0,0.5-0.2,1.1-0.2,1.5c-0.5,7.1,1.5,21.6,2.6,30.1C2183.3-9.6,2180.2-3.2,2181.6-2.8z"/>
	<path class="st18" d="M2181-2.1c0.6,0.6,2.6,0.8,5.4,0.5c-2.5,0.2-4.9-1.4-4.5-2.6c0.6-1.2,2-4,2.3-6.3c0.6-8.5,0.5-32.9,0.8-32.4
		c-0.3,0.8-1.5,1.9-4.5,2.5c0,7.1,1.2,19.6,1.7,27.6C2182.6-4.9,2178.6-4.3,2181-2.1z"/>
	<path class="st15" d="M2148.2-62.9c0-0.5,0.6-0.2,0.8,0.2c0,0,0,0.2,0,0.3c0-0.6-0.1-1.2,0-1.4c0-0.5,0.5-0.3,0.8,0
		c0-0.3,0-0.5,0-0.6c0-0.5,0.6-0.3,0.8,0.2c0,0.2,0,0.3,0.2,0.6c0-0.2,0-0.3,0-0.3c0-0.5,0.5-0.3,0.6,0c0,0.2,0,0.3,0.2,0.8
		c0,0.5,0.1,0.9,0.3,1.2c0,0.3,0.5,2.2,1.4,2.3c1.4,0.3,0.5-2,1.4-2.6c0.3-0.2,0.6,1.7,0.6,2.6c0,1.1,0,1.5,0,2.2
		c0,0.6-0.5,1.5-0.3,1.9c0,0.3,0.5,1.4,0.5,1.4l-3.1,1.2c0,0-0.5-1.9-0.8-2.3c-1.1-1.1-2.2-2.2-2.5-3.7c-0.3-0.9-0.3-1.9-0.5-2.8
		C2148.2-61.6,2148.2-62.9,2148.2-62.9z"/>
	<path class="st17" d="M2151.4-53.5c0,0,1.1,6.2,2.2,11c0.8,3.7,1.9,7.7,3.7,11.3c0,0,0,0,0,0.2c1.1,2.3,3.5,5.6,4.8,6.2
		c6,2.8,19.4-13.3,22.7-12.2c6.5,1.7,11.3-16.7,11.3-16.7s-7.5,0.2-12.2,1.1c-4.9,1.1-17.9,17.3-18.5,17.3c-0.6,0-1.7-2.5-3.2-5.1
		c-3.2-6.2-6.8-14-6.8-14l-2.9,0.9L2151.4-53.5z"/>
	<path class="st15" d="M2184.3-71.3c0,0-2.3,3.4-2,4.2c0.3,0.8,2.5,0.6,2.5,0.6"/>
	<path class="st21" d="M1901.7-31.5c2.9,3.4,5.2,11.7,8.2,15.1c1.4,1.7,11.9,10.8,19,14.7c0.3-2.2,4.8-0.8,3.2-2.2
		c-4.9-4.5-13.4-9-16.3-17.1c-1.8-5.4-8.9-17.3-8.9-17.3"/>
	<path class="st22" d="M1961.7-7.9h-52.3v-31.9c0-2.5,2-4.5,4.5-4.5h19.7c0.5,0,0.9,0.2,1.4,0.5l4.8,4c0.5,0.3,0.9,0.5,1.4,0.5h15.9
		c2.5,0,4.5,2,4.5,4.5v27H1961.7z"/>
	<path class="st0" d="M1956.3-12.3h-40.9c-1.5,0-2.6-1.2-2.6-2.6v-19.9c0-1.5,1.2-2.6,2.6-2.6h40.9c1.5,0,2.6,1.2,2.6,2.6V-15
		C1958.9-13.4,1957.8-12.3,1956.3-12.3z"/>
	<path class="st23" d="M1956.6,0.8h-42.1c-2.8,0-5.1-2.3-5.1-5.1v-23c0-2.8,2.3-5.1,5.1-5.1h42.1c2.8,0,5.1,2.3,5.1,5.1v23
		C1961.7-1.5,1959.4,0.8,1956.6,0.8z"/>
	<path class="st24" d="M1943-20.5h-1.1v-2.2c0-3.5-2.9-6.5-6.5-6.5c-3.6,0-6.5,2.9-6.5,6.5v2.2h-1.1c-0.8,0-1.2,0.6-1.2,1.2v10.2
		c0,2.2,1.7,3.7,3.7,3.7h10c2.2,0,3.7-1.7,3.7-3.7v-10.2C1944.4-20,1943.8-20.5,1943-20.5z M1931.5-22.8c0-2.3,1.8-4.2,4.2-4.2
		c2.3,0,4.2,1.9,4.2,4.2v2.2h-8.3V-22.8z"/>
	<path class="st0" d="M1937.8-15.4c0-1.2-1.1-2.3-2.3-2.3s-2.3,1.1-2.3,2.3c0,0.9,0.6,1.7,1.4,2v4.2c0,0.5,0.5,0.9,0.9,0.9
		s0.9-0.5,0.9-0.9v-4.2C1937.3-13.7,1937.8-14.5,1937.8-15.4z"/>
	<path class="st3" d="M1896.7,103.3c18.5,0,33.4-1.9,33.4-4.3c0-2.4-15-4.3-33.4-4.3s-33.5,1.9-33.5,4.3
		C1863.2,101.3,1878.2,103.3,1896.7,103.3z"/>
	<path class="st25" d="M1895.7-1.7l-13.3-11c0,0-6,8.3-3.5,16.4c1.2,3.9,2.6,5.9,3.2,7.7c0.6,1.7,4.9,26.4,4.6,28.1
		c-0.3,1.9-2.3,6.9-3.1,12.2c-0.9,6.3-0.5,27.2-1.1,32.7c-0.6,5.6,4.5,6.3,4.6,4.5c2.2-15.9,8.2-40.9,8.9-48.9
		C1897,32.1,1896.5,17.5,1895.7-1.7z"/>
	<path class="st21" d="M1896,13.9l-5.6,13.1c2.5,4,3.9,8.8,4.2,13.7c0.2,2.5,0,5.1,0,7.6c0,0.2,0,0.3,0.2,0.6
		c0.8-3.7,1.2-6.8,1.4-8.8c0.6-5.7,0.5-14.7,0-26.1C1896.2,13.9,1896.2,13.9,1896,13.9z"/>
	<path class="st25" d="M1888.2,83.8c0,0-1.1,5.9-0.8,6.5c0.3,0.8,1.5,2.9,2.8,3.6c1.2,0.8,4.2,1.7,4.3,2c0.2,0.3,0.3,0.9-0.2,1.2
		c-1.1,0.8-2.8,1.2-4,1.1c-3.8-0.6-4.2-2.3-6.5-2.5c-0.3,0-1.1,0.5-2.2,0c-1.1-0.5-1.5-1.5-1.5-2.5c0.2-1.5,1.1-2.9,1.7-4.2
		c0.6-1.2,0.9-6.6,0.9-6.6"/>
	<path class="st26" d="M1894.6,97.5c0.3-0.5,0.3-1.2,0-1.4c-0.3-0.3-1.7-1.1-2.5-1.4c-0.8-0.3-1.9-0.6-1.5-0.5
		c0.5,0.2-0.3,1.1-1.1,1.1c-2.5-0.2-4.2-1.7-5.6-2c-2-0.5-2.8-2.8-2.9-3.1c-0.3,0.3-1.2,2.2-1.4,2.8c-0.1,0.5-0.5,1.5-0.3,2
		c0.2,0.3,0.3,1.1,0.3,2c0,0,0.5,0.3,1.4,0.5c0.6,0.2,1.5,0,1.5,0l0.2-1.2c0,0,0.5,0,1.2,0.2c0.6,0.2,1.8,0.8,1.8,0.8
		c0.3,0.3,0.5,0.9,0.9,1.1c0.9,0.5,1.8,0.6,3.1,0.8C1892.6,99.1,1894.2,98.3,1894.6,97.5z"/>
	<path class="st25" d="M1914.1,96.5c-0.3-0.3-3.4-0.8-4.8-1.4c-1.4-0.6-2.9-2.5-3.4-3.2c-0.3-0.8-0.3-4.6-0.2-6.3
		c0.3-11.4,2.3-39,2.6-45.7c0.5-11.6-0.9-23.5-5.4-42l-16.5-12.7c0,0-4.6,8.6-3.1,16.8c0.9,4.8,4.9,5.6,5.5,7.4
		c0.6,1.9,10.6,31.8,10.6,31.8s-2,6.5-2,13.6c-0.1,6,2.6,24.4,3.1,31.3c0,1.4,0.3,4.6-0.2,5.7c-0.5,1.2-1.7,2.8-1.7,4.3
		c0,0.9,0.8,1.9,1.8,2.2c1.2,0.3,1.8-0.3,2.2-0.3c2.3-0.2,2.9,1.5,6.9,1.5c1.2,0,3.1-0.6,4-1.7C1914.4,97.2,1914.4,96.8,1914.1,96.5
		z"/>
	<path class="st26" d="M1914.4,97.9c0.2-0.5,0.2-1.2-0.2-1.4c-0.5-0.2-1.8-0.8-2.6-1.1c-0.8-0.2-2-0.3-1.5-0.2
		c0.5,0.2-0.2,1.1-0.9,1.2c-2.5,0.3-4.5-1.1-6-1.1c-2.2-0.2-2.9-2.3-3.1-2.6c-0.3,0.3-1.4,2.3-1.5,2.9c-0.2,0.6-0.3,1.5,0,2
		c0.2,0.3,0.5,1.1,0.5,1.9c0,0,0.5,0.2,1.5,0.3c0.6,0,1.5-0.2,1.5-0.2v-1.2c0,0,0.6-0.2,1.2-0.2c0.8,0,1.5,0.5,2,0.8
		c0.3,0.3,0.8,0.6,1.1,0.8c1.2,0.3,2,0.3,3.2,0.3C1912.5,99.7,1913.9,98.8,1914.4,97.9z"/>
	<path class="st19" d="M1883.1-13.6c-4.2,4.3-6.9,10.6-5.4,17.6c0.5,1.9,2.8,6.8,3.1,8.6c1.1,4.2,2.9,10.2,3.2,15.1
		c6.5,3.9,19,2.5,24.3-1.4c0.2-5.9-0.5-10.5-1.5-18.5c-1.7-12-3.7-14.8-5.5-19.6c-0.2-0.9-0.2-2.6-0.5-3.6"/>
	<path class="st17" d="M1900.8-53.1c1.1,0.3,0.6,2.8,1.7,3.1c0.8,0.3,2.2-0.2,2.9,0.3c3.7,2,2.8,6.2,3.1,11.3c1.5,3.9,2,7.4,0.8,9.7
		c-1.5,2.8-3.1,3.5-5.1,5.7c-1.4,1.7-1.8,5.1-2.2,8.8c0,0.6,0.5,1.7,0.3,2.3c-0.3,1.2-2.2,1.5-4.2,1.5c-4.6,0.2-11.7-1.5-13.7-1.5
		c-2,0-3.8-0.9-3.5-2c0.1-0.8,0.9-1.1,1.2-2.6c0.8-3.4,1.2-12,1.8-15c1.4-7.4,2.5-13,5.6-19.9"/>
	<path class="st18" d="M1911.3-35.2c-1.1-2-2.6-3.9-4.2-5.6l-4,1.9c1.8,3.5,2.2,7.9,3.1,11.7c0.9,0.2,2.3-0.2,2.3-0.2
		c0.5-0.6,0.3-0.3,0.8-1.2C1910.1-30.2,1911.1-32.5,1911.3-35.2z"/>
	<path class="st25" d="M1914.1-63.1c0.5-1.7,0.8-3.5,0.6-5.1c-0.2-2.9-0.5-7.3-5.4-9c-4.9-1.7-10.3-0.8-11.9,2.8
		c-1.5,3.6-1.2,9-1.5,11.7c-0.3,2.9-2.3,6.3-2.3,6.3l10.6,4.6c0,0,1.7-3.7,2.5-4.2c0.8-0.5,0.9,1.4,3.2,1.1c0.9-0.2,2-1.9,2.9-4
		v-0.2c0.5,0,1.1,0,1.2-0.2c0.8-0.2,0.6-0.5,0.5-0.9C1914.2-61.3,1914.1-62.3,1914.1-63.1z"/>
	<path class="st25" d="M1928.7-2.6c0,0.9,1.7,3.2,2.9,3.6c0.5,0.2,0.9,0.2,1.2,0c0.6,0.3,2.5,0.5,1.7-0.6c1.2,0.9,2.5,0.9,4,0.9
		c0.5,0,0.5-0.6-0.6-0.9c-1.5-0.5-2.6-1.4-3.4-2.8c0.2-0.2,0.5,0.2,1.1,0.3c0.6,0.2,1.1-0.2,1.1-0.5c0-0.2-0.8-0.5-0.9-0.6
		c-0.6-0.5-1.4-0.9-2-1.4c-0.8-0.5-1.2-0.8-2.2-0.8c-0.2,0-1.6,0-1.2,0.6"/>
	<path class="st25" d="M1904.8-36.4c1.7,3.5,6.3,15.6,7.1,17c2.8,5.4,17.3,17.3,17.3,17.3s2.5-0.5,2.5-2.8
		c-4.2-2.9-11.9-15.1-13.4-16.7c-1.1-0.9-5.7-19.9-5.7-19.9"/>
	<path class="st17" d="M1908.8-49.8c-4-1.5-7.9-1.5-10.9-4.6c-3.1,2.5,3.7,16.4,5.4,16.7c1.7,0.3,4,8,4.5,9.1
		c5.5-0.2,7.6-3.2,7.6-3.2C1913.1-38.9,1912.7-48.3,1908.8-49.8z"/>
	<path class="st16" d="M1905.6-49.5c-0.3-1.1-1.1-1.9-1.2-2.9c-0.2-1.1,0-2.3,0.6-3.2c0.3-0.5,0.9-0.9,1.4-1.2
		c2.2-1.7,2.9-3.2,2.3-5.9c-0.3-0.9-0.5-1.7-0.3-2.6c0.2-0.8,0.3-1.7,1.1-1.7c0.6,0,0.9,0,1.2,0.6c0.2,0.3-0.2,2.9,0.8,1.4
		c0.8-1.4,1.6-1.5,1.6-4.6c0-0.3-0.2-1.9,0.2-2.2c1.5,1.1,1.8,2.9,2,4.3c1.1-0.5,1.4-2,1.4-2.6c0-1.2-0.2-2.2-0.6-3.2
		c-1.8-4.2-4-4.9-5.7-5.6c-1.7-0.8-3.4-1.4-5.2-1.4s-4,0.6-4.6,2c-2.5-0.6-4,1.5-4.5,2.3c-0.8,1.1-1.5,2.3-2,3.7
		c-0.6,2-0.8,4-1.2,6.2c-0.5,1.7-1.1,3.4-2.3,4.5c-1.2,1.1-2.9,1.2-4.3,2.2c-1.7,1.2-2.6,3.4-2.5,5.6c0.1,2.2,1.2,4.5-0.2,6.3
		c-0.5,0.6-0.9,1.1-1.4,1.9c-0.9,1.5-0.8,3.5,0.2,4.9c0.9,1.5,2.6,3.2,4.3,3.7c1.7,0.5,2.9,0.8,4.6,0.6c3.1-0.2,5.6,0,8.8-2.8
		c1.8-1.5,0.6-2.5,2.5-4.2c0.9-0.9,2.3-1.4,3.1-2.6C1905.7-46.9,1905.9-48.3,1905.6-49.5C1905.6-49.4,1905.6-49.4,1905.6-49.5z"/>
</g>
</svg>
